<svg width="20" height="20" viewBox="0 0 20 20" fill="none" xmlns="http://www.w3.org/2000/svg">
<path d="M16 3.99983V15.9999H3.99992V3.99983H16ZM0.250048 0.25H1.37505L0.250048 1.37505V0.25ZM5.12516 0.25L0.25 5.12516V2.12494L2.12498 0.25H5.12516ZM9.2501 0.8125L9.25 3.24998H6.62513L9.06266 0.8125H9.2501ZM0.8125 9.25014V9.0627L3.25003 6.62508V9.25L0.8125 9.25014ZM0.25 5.87519L5.87505 0.25H8.87517L5.87519 3.24998H3.25003V5.87514L0.25 8.87517V5.87519ZM19.7499 19.7498H18.6249L19.7499 18.6248V19.7498ZM14.8748 19.7498L19.7499 14.8747V17.8749L17.875 19.7498H14.8748ZM10.7499 19.1873L10.7499 16.7498H13.3748L10.9373 19.1873H10.7499ZM19.1875 10.7497V10.9371L16.7499 13.3747V10.7498L19.1875 10.7497ZM19.7499 14.1247L14.1249 19.7498H11.1248L14.1248 16.7498H16.7499V14.1247L19.7499 11.1247V14.1247Z" fill="#66CC89"/>
</svg>
