<svg width="19" height="19" viewBox="0 0 19 19" fill="none" xmlns="http://www.w3.org/2000/svg">
<path d="M18.7501 18.7501H16.125L18.7501 16.1251V18.7501ZM7.12506 15.7502L5.25013 17.6251V15.7501L7.12506 15.7502ZM10.875 15.7502L7.87514 18.7501H5.25013L5.24998 18.3751L7.87495 15.7502H10.875ZM14.6248 15.7502L11.6251 18.7501H8.62508L11.6249 15.7502H14.6248ZM18.7501 12.3746V15.3752L15.3751 18.7501H12.375L18.7501 12.3746ZM15.7502 7.12506L15.7501 5.25008L17.6252 5.25013L15.7502 7.12506ZM18.7501 7.87514L15.7502 10.875V7.87495L18.3751 5.24998L18.7501 5.25013V7.87514ZM18.7501 11.6247L15.7502 14.6248V11.6249L18.7501 8.62503V11.6247ZM0 15V0H15L15.0002 14.9997L0 15Z" fill="#66CC89"/>
</svg>
