<svg width="19" height="19" viewBox="0 0 19 19" fill="none" xmlns="http://www.w3.org/2000/svg">
<path d="M0 15V0H15L15.0001 4.50014L4.5 4.50009V15H0ZM18.7501 18.7501L16.1249 18.75L18.75 16.125L18.7501 18.7501ZM18.75 12.375V15.3751L15.375 18.75H12.375L18.75 12.375ZM18.75 7.87505L7.87505 18.75H5.24998V18.3751L18.3751 5.25003L18.7501 5.25013L18.75 7.87505ZM18.75 11.6251L11.6251 18.75H8.62494L18.75 8.62494V11.6251ZM17.625 5.24998L5.24998 17.6251V14.625L14.625 5.25003L17.625 5.24998ZM13.8751 5.25003L5.24998 13.8751V10.8749L10.8749 5.25003H13.8751ZM10.125 5.24998L5.24998 10.125V7.12497L7.12492 5.24998H10.125Z" fill="#66CC89"/>
</svg>
