<svg width="22" height="20" viewBox="0 0 20 22" fill="none" xmlns="http://www.w3.org/2000/svg">
<path d="M19.4 6.36665V14.0333H14.6V18.6333H6.59998V10.9667H11.4V6.36665H19.4ZM1 1H2.20005L1 2.15005V1ZM6.20017 1.00005L1 5.98354V2.91665L2.99993 1L6.20017 1.00005ZM1.39992 10.2001L10.6 1.38345L10.5999 4.45044L4.60005 10.2001H1.39992ZM1 6.75019L7.00005 1H10.2001L1 9.81684V6.75019ZM5.40003 10.2001L10.6 5.21675V8.2834L8.60027 10.2001H5.40003ZM25 24H23.7999L25 22.85V24ZM19.7998 24L25 19.0165V22.0834L23.0001 24H19.7998ZM24.6 14.7999L15.4 23.6166V20.5496L21.3999 14.7999H24.6ZM25 18.2498L18.9999 24H15.7999L25 15.1832V18.2498ZM20.5999 14.7999L15.4 19.7833V16.7166L17.3997 14.7999H20.5999Z" fill="#66CC89" stroke="#66CC89" stroke-width="0.0947368" stroke-linejoin="round"/>
</svg>
